{"glyphs":{"$":{"x_min":0,"x_max":253,"ha":253,"o":"m 26 12 q 26 39 49 39 q 61 39 79 31 q 97 23 105 23 q 113 23 121 25 q 118 104 110 378 q 107 381 94 400 q 80 419 71 432 q 62 444 45 472 q 27 500 20 518 q 0 567 0 608 q 0 649 25 688 q 51 728 99 750 q 99 770 98 783 q 97 795 102 806 q 104 812 110 812 q 114 812 120 808 q 133 799 133 774 l 133 761 q 164 769 188 769 q 212 769 229 759 q 246 749 253 732 l 236 711 q 226 711 204 714 q 183 717 169 718 q 167 718 165 718 q 152 718 135 715 l 149 401 q 227 300 243 233 q 250 201 250 159 q 250 116 230 67 q 210 19 170 -5 l 170 -76 q 170 -79 170 -82 q 170 -126 142 -126 q 124 -126 124 -95 l 124 -87 l 122 -21 q 116 -22 104 -22 q 91 -22 75 -20 q 59 -17 42 -9 q 26 0 26 12 z m 107 458 q 105 510 100 700 q 74 684 61 659 q 48 636 48 604 q 48 544 107 458 z m 165 55 q 184 79 194 112 q 205 145 205 168 q 205 234 153 316 z"},"?":{"x_min":0,"x_max":227,"ha":227,"o":"m 140 34 q 140 -4 99 -4 q 85 -4 74 8 q 64 19 64 33 q 64 47 76 60 q 88 72 102 72 q 116 72 128 59 q 140 46 140 34 z m 59 587 q 31 588 31 652 q 31 688 36 707 q 42 726 58 741 q 74 755 98 755 q 122 755 138 746 q 154 737 163 725 q 172 712 177 691 q 185 662 185 613 q 185 564 175 513 q 166 462 154 423 q 124 321 124 179 q 124 130 124 112 q 106 112 104 110 q 101 109 99 109 q 81 109 75 131 q 75 242 103 383 q 131 524 131 615 q 131 707 101 707 q 82 707 82 662 q 82 654 89 608 q 89 604 77 595 q 64 587 59 587 z"},"<":{"x_min":0,"x_max":256,"ha":256,"o":"m 176 707 l 179 706 l 201 689 q 192 624 133 506 q 75 393 75 343 q 75 335 143 194 q 211 53 227 24 l 240 24 q 239 11 232 0 q 226 -11 209 -11 q 192 -11 168 19 q 143 49 120 97 q 97 145 78 191 q 59 237 42 282 q 24 328 18 341 q 19 356 51 446 q 83 535 123 621 q 162 707 176 707 z"},"'":{"x_min":0,"x_max":175,"ha":175,"o":"m 125 745 l 125 738 q 125 694 114 638 q 103 583 89 583 l 85 583 q 81 583 76 645 q 71 708 71 748 q 71 757 81 764 q 90 771 101 771 q 119 771 127 748 z"},"=":{"x_min":0,"x_max":334,"ha":334,"o":"m 126 376 l 88 375 q 28 375 28 403 q 28 414 34 420 q 40 426 50 426 l 229 426 q 307 426 307 399 q 307 373 202 373 q 157 373 130 376 z m 279 283 l 68 288 q 28 288 28 310 q 28 320 34 326 q 40 332 50 332 l 200 332 q 302 332 302 306 q 302 295 296 289 q 289 283 279 283 z"},"a":{"x_min":0,"x_max":303,"ha":303,"o":"m 201 183 q 198 198 198 234 q 198 271 194 324 q 189 378 182 450 q 174 521 171 554 q 125 302 112 199 q 129 188 201 183 z m 253 203 l 264 142 q 264 129 273 82 q 283 35 283 20 l 283 19 q 283 -3 266 -9 q 245 -9 233 -2 q 222 4 222 24 q 222 66 207 147 l 108 162 q 99 129 94 89 q 89 50 85 32 q 76 -5 52 -5 q 41 -5 31 2 q 21 10 21 21 l 23 30 q 90 291 123 537 q 124 544 126 577 q 131 650 145 670 l 178 670 q 192 670 202 664 q 212 658 212 645 q 212 569 233 419 q 253 269 253 203 z"},"L":{"x_min":0,"x_max":210,"ha":210,"o":"m 93 378 l 94 347 l 94 342 q 98 255 98 82 l 98 56 l 174 56 q 196 42 196 28 q 196 15 188 7 q 181 -2 173 -2 q 166 -2 155 1 q 147 0 136 0 l 104 1 q 94 -11 78 -11 q 63 -11 52 -2 q 42 8 42 21 l 48 64 q 48 178 38 406 q 28 633 28 747 q 28 756 36 761 q 43 767 54 767 q 65 767 74 759 q 83 750 83 738 z"},"3":{"x_min":0,"x_max":232,"ha":232,"o":"m 108 414 q 78 414 78 434 q 78 450 100 473 q 142 519 142 562 q 142 600 135 641 q 122 721 89 721 q 77 721 69 712 q 61 703 58 693 q 54 682 46 673 q 37 664 25 664 q 12 664 4 672 q -4 680 -6 691 q 7 725 32 747 q 58 768 86 768 q 115 768 134 753 q 152 738 163 715 q 173 692 180 661 q 191 610 191 572 q 191 534 187 520 q 182 506 177 498 q 173 491 162 475 q 150 458 146 453 q 208 416 226 245 q 230 208 230 181 q 230 154 229 137 q 228 120 225 96 q 222 73 215 56 q 207 38 196 22 q 174 -10 126 -10 q 89 -10 71 6 q 53 21 53 34 q 53 47 55 50 q 58 54 68 54 q 78 54 83 48 q 105 33 119 31 q 180 31 180 144 q 180 290 153 355 q 140 388 119 415 q 116 414 108 414 z"},"J":{"x_min":0,"x_max":205,"ha":205,"o":"m 106 118 l 106 256 q 106 546 80 706 q 77 705 67 703 q 47 698 37 698 q 26 698 19 705 q 11 713 11 723 q 11 758 131 758 l 144 758 q 188 758 188 732 q 188 705 147 705 l 144 706 l 130 706 l 130 698 q 130 672 136 620 q 142 569 142 523 q 142 478 151 348 q 160 219 160 154 l 160 74 q 160 15 135 -31 q 110 -78 63 -95 q 47 -95 37 -87 q 27 -79 27 -65 q 27 -52 39 -41 q 52 -29 66 -23 q 80 -6 93 33 q 106 72 106 118 z"},"V":{"x_min":0,"x_max":303,"ha":303,"o":"m 43 763 q 70 763 135 343 q 161 178 163 166 q 170 222 188 346 q 225 602 224 746 q 240 766 261 766 l 282 755 q 279 738 271 658 q 263 578 255 514 q 248 451 241 394 q 234 338 226 275 q 218 212 211 162 q 204 112 196 71 q 181 -17 171 -17 q 157 -17 147 -6 q 123 95 76 385 q 29 674 15 744 q 21 763 43 763 z"},"\"":{"x_min":0,"x_max":175,"ha":175,"o":"m 85 583 q 81 583 76 645 q 71 708 71 748 q 71 757 81 764 q 90 771 102 771 q 113 771 118 748 q 116 700 108 641 q 100 583 89 583 z m 24 745 l 25 738 q 25 694 13 638 q 2 583 -12 583 l -15 583 q -20 583 -20 748 q -20 757 -13 764 q -7 771 0 771 q 21 771 24 745 z"},"7":{"x_min":0,"x_max":228,"ha":228,"o":"m 58 727 q 34 738 34 756 q 34 772 126 772 l 145 772 q 171 772 182 764 q 192 756 195 744 q 177 655 161 480 q 130 162 94 58 q 95 56 95 43 q 95 30 84 12 q 73 -5 56 -5 l 37 12 q 37 32 45 57 q 86 184 114 379 q 141 574 145 729 q 129 731 117 731 q 105 731 58 727 z"},"S":{"x_min":0,"x_max":255,"ha":255,"o":"m 19 12 q 19 39 41 39 q 52 39 71 31 q 89 23 102 23 q 116 23 131 41 q 147 58 156 83 q 174 135 174 177 q 174 218 159 266 q 145 314 124 356 q 103 398 81 440 q 30 540 31 623 q 30 701 80 745 q 106 769 142 769 q 160 769 177 759 q 194 749 201 732 l 184 711 q 159 711 145 721 q 126 719 113 703 q 88 674 88 632 q 88 590 99 550 q 109 510 125 478 q 142 446 160 409 q 179 372 195 338 q 233 259 233 167 q 233 103 200 43 q 185 15 157 -4 q 130 -22 96 -22 q 60 -22 39 -11 q 19 0 19 12 z"},"}":{"x_min":0,"x_max":317,"ha":317,"o":"m 126 688 l 67 676 q 63 676 61 685 q 59 693 59 702 q 59 710 71 718 q 89 729 119 730 q 175 730 196 699 q 217 668 218 610 l 218 428 q 218 386 241 381 q 250 379 259 378 q 281 377 281 357 q 281 333 259 333 q 249 332 240 330 q 218 325 218 284 l 222 161 q 222 117 217 108 q 219 96 219 81 q 219 35 193 6 q 167 -23 119 -23 q 87 -23 68 -14 q 49 -4 49 6 q 49 17 58 22 q 66 28 77 28 l 126 19 q 174 19 174 141 l 169 261 q 169 333 188 356 q 170 379 170 427 l 175 550 q 175 688 126 688 z"},"Z":{"x_min":0,"x_max":209,"ha":209,"o":"m 68 753 l 162 764 q 174 764 182 755 q 189 747 189 735 q 189 473 79 42 l 131 45 q 184 45 184 15 l 184 10 l 168 -5 l 45 -9 q 26 -9 17 15 q 40 52 68 205 q 97 359 115 502 q 133 645 137 708 q 103 704 80 704 q 26 704 26 735 l 26 740 l 40 756 l 40 757 q 53 753 68 753 z"},"x":{"x_min":0,"x_max":230,"ha":230,"o":"m 131 565 l 130 598 q 130 625 139 640 q 148 655 175 663 l 194 639 q 179 616 178 595 q 177 573 177 553 l 177 542 q 165 510 152 430 q 139 351 139 315 q 139 280 157 220 q 175 160 193 105 q 211 50 211 33 q 211 16 203 9 q 195 1 185 1 q 176 1 168 11 q 160 20 153 36 q 147 53 141 72 q 136 90 131 113 q 127 135 124 152 q 120 170 117 188 q 114 205 113 211 q 110 197 104 137 q 97 77 87 45 q 88 42 88 34 q 88 -3 62 -3 q 51 -3 41 3 q 32 9 32 20 q 32 63 46 117 q 60 171 74 225 q 88 279 88 315 q 88 351 63 465 q 38 579 26 595 l 26 606 q 17 615 17 628 q 17 651 47 651 q 67 651 84 587 q 99 530 106 487 q 113 443 114 437 q 115 443 119 461 q 122 479 124 489 q 125 498 127 513 q 131 543 131 565 z"},")":{"x_min":0,"x_max":212,"ha":212,"o":"m 189 399 q 189 399 189 398 q 189 317 146 96 q 126 -1 97 -74 q 67 -148 39 -148 q 28 -148 20 -141 q 12 -135 12 -125 q 12 -116 20 -99 q 28 -82 40 -62 q 86 20 113 161 q 139 302 139 388 q 139 611 81 720 q 59 761 59 786 l 59 792 l 77 806 q 105 806 128 753 q 150 700 163 626 q 188 479 189 399 z"},"&":{"x_min":0,"x_max":441,"ha":441,"o":"m 151 630 q 151 630 152 496 l 152 485 q 178 517 202 561 q 226 604 226 627 q 226 649 209 678 q 193 708 177 708 q 162 708 151 684 z m 279 340 q 355 340 392 353 q 420 347 420 326 q 420 299 368 299 l 365 299 l 340 299 q 340 140 299 85 q 329 55 363 55 l 403 58 l 422 42 q 422 22 408 16 q 394 9 371 9 q 326 9 274 47 q 218 9 171 9 q 123 9 90 34 q 58 60 41 98 q 23 135 23 167 q 23 198 26 222 q 29 247 31 264 q 34 281 42 305 q 51 330 55 341 q 59 352 72 381 q 90 417 112 461 l 105 599 l 105 682 q 105 718 123 736 q 141 754 173 754 q 205 754 238 727 q 271 700 271 664 q 271 604 250 556 q 230 508 189 461 q 188 457 180 447 q 164 424 164 413 q 164 370 201 257 q 238 144 264 116 q 295 188 295 293 l 295 297 q 288 297 286 300 q 284 303 283 304 q 283 305 281 309 q 279 313 279 314 z m 123 385 q 70 302 70 190 q 70 139 92 97 q 117 50 170 50 q 187 50 210 59 q 233 67 244 77 q 151 210 123 385 z"},"_":{"x_min":0,"x_max":412,"ha":412,"o":"m 343 0 l 391 1 q 415 1 415 -18 q 415 -26 407 -33 q 399 -40 379 -40 q 358 -40 344 -41 l 36 -46 q 20 -46 9 -39 q -3 -32 -3 -23 q -3 -14 4 -7 q 11 0 21 0 z"},"v":{"x_min":0,"x_max":325,"ha":325,"o":"m 167 121 q 189 231 221 439 q 253 648 259 682 l 282 682 q 291 682 298 675 q 305 669 305 660 q 305 604 281 518 q 257 433 253 408 q 249 384 244 329 q 240 273 234 220 q 228 167 218 112 q 208 57 191 22 q 173 -12 148 -12 l 130 3 q 130 125 107 251 q 83 378 61 464 q 39 550 31 573 q 14 627 14 640 q 14 653 21 660 q 29 667 38 667 q 66 667 91 571 q 117 475 129 391 q 142 308 148 263 q 155 219 160 174 q 166 129 167 121 z"},"O":{"x_min":0,"x_max":317,"ha":317,"o":"m 284 302 l 275 175 l 275 171 q 269 143 269 111 q 269 79 258 49 q 247 19 224 -5 q 201 -28 173 -28 q 146 -28 124 -9 q 101 9 86 38 q 72 67 61 108 q 49 148 43 186 q 37 225 33 267 q 27 332 28 368 q 28 404 27 429 q 27 455 26 476 q 26 486 26 498 q 26 511 26 525 q 27 554 28 577 q 29 600 32 626 q 36 653 41 673 q 45 693 54 713 q 62 733 73 746 q 98 774 129 774 q 161 774 184 762 q 206 751 221 726 q 237 700 248 676 q 260 652 266 610 q 273 567 277 541 q 281 514 282 464 q 284 397 284 359 z m 77 541 q 75 519 74 491 q 73 446 73 420 l 73 416 q 73 349 83 272 q 93 194 104 145 q 115 96 134 61 q 152 27 175 27 q 195 27 209 64 q 223 103 229 158 q 238 258 239 298 q 239 338 239 357 q 238 375 237 411 q 236 446 233 477 q 230 508 225 546 q 221 583 213 613 q 206 642 196 668 q 186 693 171 707 q 156 721 141 721 q 126 721 117 711 q 107 701 101 682 q 94 663 89 642 q 84 620 81 592 q 79 564 77 541 z"},"(":{"x_min":0,"x_max":204,"ha":204,"o":"m 193 -156 q 193 -156 192 -155 q 184 -176 165 -176 q 139 -176 115 -122 q 91 -67 75 12 q 60 91 48 179 q 25 347 25 402 q 25 456 33 514 q 40 572 53 639 q 66 707 88 756 q 109 806 133 806 l 138 806 l 155 792 q 155 765 139 732 q 123 700 120 691 q 75 582 75 439 q 75 297 93 161 q 112 5 165 -92 q 187 -132 193 -156 z"},"C":{"x_min":0,"x_max":317,"ha":317,"o":"m 86 488 l 77 418 l 77 394 q 77 278 82 240 q 87 203 93 173 q 98 143 107 122 q 115 101 127 83 q 150 45 192 45 q 209 45 234 63 q 260 81 273 81 q 286 81 301 66 q 301 16 244 -6 q 216 -16 183 -16 q 149 -16 126 -3 q 103 11 87 32 q 71 53 60 86 q 48 120 41 152 q 35 186 31 229 q 25 301 25 387 l 26 506 q 26 563 33 599 q 30 615 30 630 q 30 691 76 728 q 122 764 189 764 q 213 764 236 751 q 259 737 259 715 q 259 705 250 699 q 242 693 222 693 q 203 693 195 705 l 195 705 l 182 705 l 182 707 q 124 707 103 671 q 83 638 83 557 z"},"W":{"x_min":0,"x_max":440,"ha":440,"o":"m 340 21 q 340 6 333 -4 q 325 -14 311 -14 q 274 -14 220 371 q 212 427 210 436 q 191 303 182 206 q 172 109 172 14 q 172 3 163 -6 q 154 -14 143 -14 q 106 -14 106 62 q 106 109 65 405 q 24 700 13 728 q 25 752 48 752 q 71 752 90 648 q 109 544 122 396 q 136 248 136 246 q 138 259 146 330 q 155 400 160 443 q 174 573 174 628 l 174 647 q 174 658 182 668 q 190 678 201 678 q 236 678 236 648 l 236 633 q 236 537 281 354 q 301 273 309 225 q 314 280 329 385 q 359 612 359 735 q 359 757 367 767 q 374 777 391 777 q 407 777 417 770 q 426 762 426 750 q 426 737 416 727 q 416 582 378 374 q 340 167 340 21 z"},"A":{"x_min":0,"x_max":320,"ha":320,"o":"m 257 0 q 227 0 227 26 l 227 157 q 212 167 176 173 q 139 180 110 182 q 100 165 93 131 q 86 98 79 64 q 72 31 61 11 q 21 11 17 31 q 30 51 61 231 q 92 411 112 513 q 131 615 154 684 q 177 753 198 753 q 219 753 230 745 q 230 709 250 552 q 270 395 270 348 q 270 302 280 195 q 291 88 291 34 q 291 0 257 0 z m 193 612 q 177 596 148 433 q 118 270 116 227 q 158 215 186 215 q 214 215 226 218 q 224 238 215 327 q 207 416 199 496 q 192 576 192 593 q 192 610 193 612 z"},"f":{"x_min":0,"x_max":236,"ha":236,"o":"m 107 595 l 98 395 l 98 368 l 117 368 q 165 368 165 342 q 165 329 154 321 q 144 312 126 312 q 109 312 90 318 l 90 35 q 90 -9 64 -9 q 49 -9 29 6 q 37 96 41 260 q 45 425 48 476 l 48 500 q 52 573 52 636 q 52 650 64 658 q 76 666 91 666 q 106 666 123 665 q 141 664 166 660 q 222 652 222 625 q 222 597 171 597 q 151 607 119 607 l 107 607 z"},"Q":{"x_min":0,"x_max":330,"ha":330,"o":"m 235 406 q 235 426 235 445 q 235 720 133 720 q 115 720 103 668 q 90 617 85 539 q 76 410 76 354 q 77 298 78 276 q 79 254 82 220 q 84 186 91 157 q 98 128 107 101 q 117 74 133 58 q 149 41 170 39 l 170 40 q 177 53 197 53 l 197 52 q 235 87 235 160 z m 31 514 q 31 770 142 770 q 197 770 229 729 q 261 689 273 629 q 287 561 288 513 q 289 464 290 431 q 291 415 291 398 q 290 383 290 367 q 289 336 290 322 l 290 277 q 290 192 279 141 q 268 90 228 34 q 229 30 232 14 q 234 -2 237 -17 q 240 -31 245 -47 q 255 -83 271 -83 l 274 -83 q 306 -83 312 -91 q 317 -99 317 -107 q 317 -138 273 -138 q 256 -138 231 -124 l 231 -123 q 204 -110 193 -79 q 185 -54 181 -26 q 178 1 176 10 l 135 10 q 40 73 29 218 q 27 245 27 280 l 32 443 z"},"w":{"x_min":0,"x_max":392,"ha":392,"o":"m 310 648 q 310 672 338 672 q 366 672 366 649 q 366 617 363 608 l 363 603 q 350 561 350 511 l 350 438 q 350 375 334 249 q 319 124 319 68 q 319 -34 280 -34 q 251 -34 251 9 q 251 52 249 95 q 246 139 239 191 q 232 243 228 277 q 223 311 213 374 q 203 438 200 460 q 196 427 196 393 q 196 359 189 266 q 181 172 162 76 q 144 -21 120 -21 q 81 -21 62 188 q 53 278 46 369 q 28 602 15 631 q 23 649 44 649 q 76 649 76 576 q 76 504 97 355 q 118 207 121 138 q 163 428 163 579 l 190 591 q 202 591 211 584 q 220 578 220 566 l 220 558 q 248 462 265 279 q 272 196 279 150 q 298 289 298 480 q 298 506 305 556 q 313 605 313 631 q 310 640 310 648 z"},"-":{"x_min":0,"x_max":357,"ha":357,"o":"m 263 340 q 239 331 205 327 q 142 320 104 320 q 91 320 81 329 q 71 337 71 349 q 71 361 94 370 q 118 379 152 383 q 212 390 253 390 q 266 390 276 382 q 287 374 287 361 q 287 349 263 340 z"},"E":{"x_min":0,"x_max":223,"ha":223,"o":"m 143 366 l 118 367 q 104 367 98 360 l 98 51 q 149 54 153 54 q 210 54 210 28 l 210 24 q 204 11 187 3 q 170 -4 158 -5 q 145 -6 125 -6 l 94 -6 q 57 -6 48 9 q 44 16 44 27 l 44 608 q 44 625 37 659 q 30 692 30 710 l 30 713 q 47 741 55 749 l 129 757 q 145 757 160 748 q 175 739 175 725 q 175 695 130 695 l 101 696 q 94 696 90 695 l 98 530 q 98 510 96 472 q 93 434 93 416 q 99 417 108 419 q 128 425 140 425 q 151 425 160 417 q 169 408 169 396 q 169 385 162 375 q 155 366 143 366 z"},"s":{"x_min":0,"x_max":217,"ha":217,"o":"m 35 42 l 77 35 q 96 35 110 51 q 124 68 131 93 q 144 141 144 177 q 144 214 132 250 q 120 287 102 318 q 84 349 66 381 q 24 457 24 530 q 24 575 40 610 q 68 674 115 674 q 132 674 148 663 q 164 652 164 639 q 164 616 140 616 q 129 616 119 622 q 87 620 76 551 q 73 536 73 515 q 73 495 82 465 q 91 436 104 412 q 118 389 133 361 q 148 333 162 307 q 193 246 193 167 q 193 106 165 51 q 151 24 126 7 q 101 -11 69 -11 l 69 -14 q 28 -8 24 25 z"},">":{"x_min":0,"x_max":255,"ha":255,"o":"m 62 -9 l 43 -11 q 35 -11 28 -5 q 22 1 22 16 q 22 31 62 109 q 101 187 141 260 q 180 333 180 343 q 180 393 136 479 q 117 516 100 551 q 56 638 55 689 l 82 706 l 82 705 q 101 696 139 614 q 178 532 207 448 q 237 363 238 341 z"},"l":{"x_min":0,"x_max":228,"ha":228,"o":"m 93 561 l 96 320 q 90 307 90 286 l 90 266 l 86 107 q 86 38 120 38 l 161 40 q 215 40 215 10 q 215 0 206 -8 q 196 -15 185 -16 q 148 -4 95 -4 q 79 -14 64 -14 q 49 -14 41 -3 q 33 7 33 19 q 33 93 39 242 q 45 392 45 466 l 45 473 q 40 536 40 567 q 40 662 74 662 q 84 662 92 654 q 100 647 100 637 z"},"8":{"x_min":0,"x_max":259,"ha":259,"o":"m 65 554 q 31 635 31 683 q 31 785 100 785 l 121 785 q 153 765 162 751 q 171 736 175 728 q 179 719 181 703 q 184 679 184 654 q 184 629 183 617 q 183 604 181 591 q 179 578 178 568 q 177 558 174 542 l 170 519 q 164 487 161 476 q 158 464 154 444 q 149 425 148 421 q 183 341 205 241 q 228 140 228 58 q 228 37 227 35 l 227 30 l 227 29 q 196 -40 132 -40 q 109 -40 93 -26 q 77 -12 68 11 q 53 53 53 103 q 53 153 76 265 q 100 376 100 413 q 100 450 89 487 q 78 524 65 554 z m 127 366 q 99 273 99 93 l 99 92 q 99 66 112 40 l 112 35 q 113 24 118 14 q 124 3 133 3 q 182 3 182 70 q 182 137 167 206 q 153 275 127 366 z m 104 740 l 93 740 l 93 740 q 80 725 80 691 q 80 657 92 593 q 105 529 117 492 q 139 569 139 641 q 139 662 132 701 q 125 740 114 740 z"},"\\":{"x_min":0,"x_max":250,"ha":250,"o":"m 210 -15 l 210 -15 q 194 -15 172 43 q 150 102 129 194 q 107 286 90 373 q 72 459 57 543 q 41 626 38 639 q 36 651 30 670 q 18 712 18 729 q 18 746 26 752 q 34 759 44 759 q 64 759 98 650 q 132 541 161 405 q 190 269 211 152 q 233 35 233 17 q 233 -1 210 -15 z"},"e":{"x_min":0,"x_max":222,"ha":222,"o":"m 42 505 l 37 589 q 37 660 79 660 q 105 660 152 648 q 198 635 198 616 q 198 595 169 584 q 123 600 93 604 q 95 582 95 561 l 90 417 q 90 416 93 401 l 129 403 q 177 403 177 375 q 177 365 168 357 q 160 349 146 349 q 133 349 117 351 l 92 351 q 95 312 95 275 q 95 275 90 94 q 90 38 92 38 l 166 40 q 204 40 204 16 q 204 0 191 -6 q 178 -13 161 -13 l 77 -13 q 63 -13 53 -4 q 42 5 42 18 l 42 44 l 35 213 z"},"b":{"x_min":0,"x_max":240,"ha":240,"o":"m 95 521 q 95 521 95 373 q 147 374 147 499 q 147 624 106 629 q 95 604 95 521 z m 88 91 l 89 86 l 89 41 q 123 49 140 81 q 157 113 157 140 q 157 168 156 184 q 155 200 151 224 q 147 247 142 265 q 127 308 96 314 q 92 250 92 163 z m 46 573 l 41 625 l 41 630 q 41 651 47 663 q 54 675 81 675 q 108 675 134 661 q 160 647 175 622 q 205 573 205 511 q 205 448 195 412 q 186 375 164 344 q 203 307 209 221 q 210 201 210 174 q 210 146 206 120 q 201 94 189 70 q 178 46 161 28 q 125 -10 63 -10 q 42 -10 36 9 q 32 23 32 43 l 42 256 z"},"%":{"x_min":0,"x_max":526,"ha":526,"o":"m 459 228 q 459 263 452 295 q 431 347 406 358 q 377 357 369 278 q 362 218 362 188 q 362 157 374 107 q 386 57 398 57 q 459 57 459 188 z m 108 708 q 96 708 83 650 q 71 593 71 576 q 71 558 71 545 q 72 531 73 509 q 75 487 78 468 q 81 448 86 430 q 102 397 116 391 q 171 391 171 533 q 171 708 108 708 z m 321 702 l 321 702 q 322 717 329 734 q 336 750 348 750 q 360 750 368 743 q 375 737 375 726 q 376 656 287 323 q 246 168 240 134 q 233 99 229 82 q 225 64 218 42 q 203 -3 179 -4 q 160 7 160 31 q 160 56 172 120 q 185 184 208 276 q 231 369 248 433 q 297 620 321 702 z m 453 19 q 429 1 403 1 q 377 1 362 15 q 347 29 338 50 q 330 71 324 97 q 314 140 314 169 q 314 198 314 210 q 314 221 315 244 q 316 266 319 282 q 322 298 326 319 q 330 340 337 354 q 345 369 354 382 q 374 409 409 409 q 452 409 474 378 q 496 346 500 316 q 508 271 508 233 l 508 185 q 508 120 487 66 q 476 37 453 19 z m 217 557 l 216 557 q 209 537 208 480 q 207 425 201 398 q 188 342 118 342 q 82 342 62 368 q 41 398 35 424 q 30 451 28 466 q 25 482 24 504 q 22 538 22 563 q 22 589 26 617 q 30 646 39 679 q 47 713 64 736 q 82 758 105 758 q 217 758 217 560 z"},"m":{"x_min":0,"x_max":495,"ha":495,"o":"m 402 10 l 403 138 q 403 183 396 269 q 388 354 388 384 q 388 414 390 455 q 392 497 392 517 q 388 504 358 379 q 282 56 250 56 q 230 56 219 67 q 208 79 208 99 q 208 146 171 294 q 133 441 107 520 q 88 167 88 43 q 88 43 90 14 q 90 -2 83 -11 q 76 -20 62 -20 q 47 -20 38 -12 q 28 -5 28 4 q 28 106 44 310 q 59 514 59 616 q 53 625 53 636 q 53 648 65 654 q 78 660 92 660 q 113 660 177 459 q 240 258 255 181 q 259 195 273 255 q 287 314 303 378 q 318 442 337 508 q 379 658 408 658 q 421 658 433 651 q 445 644 445 631 q 445 559 451 415 q 458 271 458 207 l 455 101 l 455 101 q 455 89 461 29 l 463 10 q 467 -1 467 -13 q 467 -25 458 -39 q 449 -52 434 -52 q 402 -52 402 10 z"},"#":{"x_min":0,"x_max":365,"ha":365,"o":"m 278 341 l 289 341 q 330 341 330 311 l 331 311 q 330 286 292 286 q 291 286 290 286 l 275 287 q 272 252 265 190 q 248 54 248 -19 l 230 -40 q 196 -40 196 -18 q 196 36 211 136 q 226 237 228 284 q 205 286 158 286 l 134 284 q 132 274 130 234 q 127 193 124 150 q 121 107 115 62 q 103 -39 80 -39 q 69 -39 60 -33 q 51 -27 51 -18 q 51 103 86 281 q 64 279 57 279 q 15 279 15 311 q 15 333 62 333 l 92 333 q 102 386 107 463 q 88 461 83 461 q 35 461 35 490 l 35 495 l 50 511 l 81 511 q 96 511 111 512 q 113 529 120 573 q 133 659 133 711 l 133 729 q 133 746 138 755 q 143 765 159 765 l 166 765 l 177 742 q 177 703 168 628 q 160 553 159 517 q 168 515 199 515 q 231 515 247 519 q 259 580 269 651 q 278 723 283 750 q 294 765 305 765 q 316 765 324 758 q 332 752 332 745 q 332 706 315 632 q 297 558 296 521 l 329 521 l 350 498 q 346 484 341 476 q 335 468 323 468 l 291 470 q 279 418 278 341 z m 138 335 q 142 334 171 334 q 201 334 226 337 q 242 427 242 465 q 225 469 198 469 q 170 469 153 466 q 141 419 138 335 z"},",":{"x_min":0,"x_max":220,"ha":220,"o":"m 62 -63 q 84 -38 94 31 q 103 90 133 90 q 168 90 168 38 q 168 15 153 -17 q 138 -49 113 -74 q 88 -99 69 -99 q 50 -99 50 -86 q 50 -74 62 -63 z"},"n":{"x_min":0,"x_max":404,"ha":404,"o":"m 31 405 l 37 591 q 37 638 74 665 l 74 659 q 78 661 81 661 q 104 661 140 580 q 175 500 203 403 q 231 306 260 208 q 288 109 294 92 q 314 302 314 600 l 313 626 q 313 656 338 656 q 352 656 359 645 q 366 633 366 617 l 366 542 q 365 424 356 227 q 346 31 330 5 q 303 -3 292 -3 q 282 -3 276 4 q 271 11 267 26 q 264 41 261 45 l 262 50 q 262 87 190 286 q 118 484 86 559 l 86 56 q 87 54 90 49 q 96 38 96 29 q 96 20 87 10 q 78 1 66 1 q 33 1 33 62 z"},"h":{"x_min":0,"x_max":279,"ha":279,"o":"m 93 602 l 89 353 q 107 348 144 348 l 180 348 q 183 352 183 380 q 183 408 176 502 q 169 597 169 645 q 169 656 178 663 q 187 671 195 671 q 203 671 208 669 q 212 668 218 666 q 224 663 228 662 q 228 532 237 282 q 247 33 247 24 q 247 16 236 8 q 226 0 213 0 q 200 0 192 19 q 184 38 181 75 q 179 113 178 140 q 177 152 178 167 q 178 188 178 214 q 179 260 179 268 l 179 271 l 181 300 l 175 310 l 175 311 q 167 309 157 309 l 92 318 l 92 203 l 98 39 q 98 24 91 13 q 83 2 70 2 q 50 2 42 39 q 35 75 35 138 l 38 291 q 38 338 36 343 l 36 348 q 40 400 40 406 l 33 632 q 33 644 42 653 q 50 662 62 662 q 93 662 93 602 z"},"z":{"x_min":0,"x_max":241,"ha":241,"o":"m 142 6 l 83 9 q 76 9 65 3 q 54 -2 45 -2 q 37 -2 28 5 q 20 11 20 28 q 20 117 87 339 q 155 562 168 613 l 86 607 q 76 607 68 616 q 61 625 61 635 q 61 664 170 664 q 220 664 220 636 q 220 601 198 540 q 176 480 172 456 q 160 376 120 224 q 81 71 77 51 l 94 51 l 136 54 l 136 55 q 176 55 176 30 q 176 18 166 12 q 155 6 142 6 z"},"B":{"x_min":0,"x_max":281,"ha":281,"o":"m 104 694 q 90 694 90 658 q 90 622 92 545 q 94 468 94 434 q 120 439 139 477 q 154 508 164 537 q 173 566 176 573 l 176 608 q 176 638 155 666 q 133 694 104 694 z m 156 355 q 140 372 129 375 l 94 375 q 99 237 99 44 q 149 52 177 90 q 206 128 206 178 q 206 228 197 265 q 189 303 179 323 q 169 342 156 355 z m 43 263 l 36 669 l 36 675 q 36 729 53 743 q 61 750 74 750 q 145 750 185 705 q 225 659 225 586 q 225 541 201 492 q 177 443 144 419 q 205 378 231 315 q 257 252 257 183 q 257 146 239 107 q 221 69 202 46 q 184 23 154 7 q 125 -8 89 -8 l 85 -8 q 38 -8 38 17 z"},"K":{"x_min":0,"x_max":317,"ha":317,"o":"m 47 322 l 49 512 q 49 562 42 627 q 34 693 34 713 q 34 733 42 743 q 50 752 62 752 q 100 752 100 671 q 100 671 95 466 q 99 474 114 515 q 130 555 146 596 q 164 637 183 681 q 226 779 245 779 q 256 779 265 772 q 273 764 273 754 q 273 743 219 629 q 165 515 158 484 l 158 466 q 172 429 238 224 q 303 18 303 6 q 303 -7 293 -15 q 283 -23 271 -23 l 248 -20 q 223 123 196 228 q 169 334 125 430 q 96 376 94 365 q 91 335 91 317 l 98 132 l 98 50 q 98 -3 63 -3 q 34 -3 34 47 q 34 98 41 188 q 47 277 47 322 z"},"R":{"x_min":0,"x_max":268,"ha":268,"o":"m 38 29 l 42 616 l 42 739 q 42 750 47 755 q 52 760 73 760 q 93 760 115 750 q 136 740 150 724 q 165 706 175 685 q 194 643 194 594 q 194 545 170 482 q 167 476 158 454 q 149 432 148 428 q 148 354 186 235 q 198 195 222 125 q 245 56 251 37 l 251 35 q 251 1 243 -5 q 235 -10 227 -10 q 208 -10 190 17 l 190 20 q 186 111 128 295 q 102 379 91 419 l 91 25 q 91 10 86 2 q 81 -6 66 -6 q 52 -6 45 2 q 38 10 38 21 z m 93 714 l 88 510 q 88 479 89 464 q 106 480 123 503 l 138 589 q 140 596 140 605 q 140 629 130 663 q 116 710 93 714 z"},"T":{"x_min":0,"x_max":240,"ha":240,"o":"m 157 581 l 155 452 l 164 222 l 172 42 q 172 -7 143 -7 q 126 -7 119 9 q 111 24 111 43 l 119 203 q 119 255 112 359 q 105 463 105 515 l 106 602 q 106 674 97 695 l 43 690 q 30 690 20 698 q 10 705 10 717 q 10 729 34 737 q 59 746 93 750 q 153 757 194 757 q 206 757 216 749 q 226 741 226 729 q 226 716 217 709 q 208 702 196 702 l 160 704 q 153 704 150 704 q 157 646 157 581 z"},"P":{"x_min":0,"x_max":242,"ha":242,"o":"m 42 28 l 47 385 q 47 621 21 742 q 37 765 60 765 q 97 765 127 748 q 158 731 177 704 q 216 647 216 574 q 216 500 185 441 q 153 381 91 348 q 91 348 99 36 q 99 -5 66 -5 q 54 -5 48 5 q 42 16 42 28 z m 89 396 q 165 467 165 565 l 165 566 q 165 622 151 645 q 145 655 140 661 q 136 667 124 678 q 108 690 77 712 q 77 660 83 554 q 89 449 89 396 z"},"|":{"x_min":0,"x_max":228,"ha":228,"o":"m 118 749 l 120 185 l 120 -14 q 120 -24 113 -32 q 105 -39 95 -39 q 70 -39 70 56 l 63 737 q 63 773 98 773 q 106 773 112 766 q 118 758 118 749 z"},"t":{"x_min":0,"x_max":241,"ha":241,"o":"m 125 16 l 124 93 q 124 93 125 127 q 121 140 109 353 q 97 565 96 613 q 94 613 92 613 q 11 614 11 643 q 11 652 22 658 q 33 664 43 664 q 43 664 179 655 l 195 655 q 226 655 226 631 q 226 619 216 612 q 206 604 193 604 l 147 611 l 145 601 q 145 506 162 317 q 178 128 178 33 q 178 21 167 12 q 157 3 144 3 z"},"M":{"x_min":0,"x_max":402,"ha":402,"o":"m 41 227 l 37 614 q 37 679 39 743 l 66 759 q 96 757 134 600 q 165 471 184 369 q 203 267 205 258 q 212 290 230 373 q 249 456 258 502 q 286 636 292 741 l 292 747 q 294 759 304 767 q 314 775 326 775 q 337 775 344 767 q 351 759 351 750 q 351 630 360 391 q 369 152 369 33 q 369 9 356 -9 q 344 -26 332 -26 q 308 -26 308 13 l 304 434 l 304 485 q 297 446 273 350 q 249 253 242 202 l 242 196 q 241 192 239 177 q 237 163 235 153 q 233 144 229 132 q 219 108 198 108 q 162 108 162 202 q 162 294 117 460 q 95 543 88 572 q 86 492 86 452 l 95 41 q 95 19 80 3 q 54 3 45 20 q 36 36 36 64 z"},"g":{"x_min":0,"x_max":312,"ha":312,"o":"m 275 201 l 280 95 q 280 45 245 19 q 211 -8 165 -8 q 96 -8 64 44 q 42 81 36 113 q 30 146 28 163 q 25 181 24 210 q 22 252 22 277 l 22 320 q 22 461 31 499 q 39 536 50 568 q 61 601 76 618 q 114 661 163 661 q 212 661 212 636 q 212 624 203 616 q 193 609 181 609 l 160 611 q 125 611 107 543 q 82 445 82 307 q 82 213 88 177 q 94 142 102 118 q 108 94 118 79 q 141 44 177 44 q 226 44 226 204 l 226 250 q 218 253 202 253 l 183 253 q 148 253 148 276 q 148 290 158 297 q 168 305 182 305 l 182 304 l 196 304 q 286 304 286 273 z"},"j":{"x_min":0,"x_max":254,"ha":254,"o":"m 162 608 l 172 187 l 172 80 q 172 30 164 8 q 156 -14 149 -29 q 142 -43 130 -55 q 118 -66 104 -75 q 73 -94 20 -94 q 8 -94 8 -82 l 9 -65 q 9 -60 23 -55 q 75 -37 88 -22 q 117 9 117 91 l 106 602 l 106 606 q 68 606 52 613 q 35 620 32 623 q 29 626 29 634 q 29 641 41 647 q 52 654 77 654 q 102 654 171 648 q 240 642 240 631 q 240 621 232 614 q 224 608 213 608 z"},"i":{"x_min":0,"x_max":244,"ha":244,"o":"m 140 333 l 145 120 l 145 90 l 144 62 l 157 62 q 157 62 186 63 q 227 63 227 39 q 227 26 217 17 q 207 8 194 8 l 150 8 q 104 8 92 10 q 84 9 80 9 q 44 9 44 31 q 44 41 50 49 q 56 57 62 58 l 90 58 l 92 71 l 85 283 l 90 506 q 90 563 85 613 l 66 613 l 43 612 q 29 612 21 618 q 12 624 12 639 q 12 662 62 662 l 181 662 q 221 662 221 641 q 221 632 212 624 q 204 616 192 616 l 141 616 q 145 575 145 523 z"},"y":{"x_min":0,"x_max":250,"ha":250,"o":"m 173 53 q 173 -14 141 -14 q 123 -14 113 8 q 124 30 124 178 q 124 205 119 254 q 113 303 112 324 l 112 350 q 110 354 81 429 q 15 597 15 629 l 15 634 l 37 651 q 68 650 110 496 q 129 429 129 428 q 133 439 145 503 q 174 665 207 665 q 216 665 224 659 q 231 653 231 644 q 231 594 203 499 q 174 404 173 354 z"},"@":{"x_min":0,"x_max":503,"ha":503,"o":"m 210 -59 q 7 -59 7 467 q 7 611 26 677 q 50 757 91 792 q 147 839 233 839 q 355 839 418 715 q 481 592 481 375 q 481 313 476 290 q 470 266 464 249 q 458 233 449 223 q 428 198 395 198 q 371 198 345 253 q 328 208 299 178 q 270 149 238 149 q 185 149 159 198 q 126 262 126 416 q 126 490 129 513 q 133 537 137 556 q 141 576 146 590 q 152 603 161 617 q 170 632 181 640 q 207 660 235 660 q 264 660 283 648 q 302 636 315 617 q 329 599 339 571 q 350 542 356 515 q 362 487 367 451 q 372 415 375 388 q 377 362 380 327 q 383 293 385 276 l 385 271 l 399 249 q 410 255 416 284 q 425 324 425 370 q 425 416 423 450 q 421 485 415 527 q 410 569 401 605 q 392 641 376 675 q 361 709 341 733 q 297 787 229 787 q 137 787 100 717 q 70 660 67 567 q 66 544 66 513 l 66 454 q 66 63 170 -3 q 189 -16 221 -15 q 252 -15 285 -6 q 319 3 339 16 q 360 29 376 42 q 414 73 425 73 q 437 73 437 63 q 437 52 422 32 q 408 13 381 -8 q 355 -29 309 -44 q 264 -59 210 -59 z m 240 608 q 211 608 195 547 q 178 485 178 403 q 178 320 196 260 q 213 200 246 200 q 267 200 289 236 q 312 272 312 295 l 312 371 q 312 430 301 491 q 269 592 240 608 z"},"p":{"x_min":0,"x_max":236,"ha":236,"o":"m 41 432 l 42 527 q 42 588 35 620 q 42 655 62 655 l 105 655 q 163 655 187 607 q 207 565 207 510 q 207 440 204 424 q 200 408 196 394 q 192 380 187 371 q 181 362 172 352 q 164 341 152 334 q 127 318 92 307 l 92 200 l 100 10 q 100 -2 90 -10 q 80 -19 66 -19 l 45 -7 q 33 48 33 140 l 37 318 q 31 332 31 343 l 31 346 q 41 366 41 432 z m 91 544 l 93 350 l 93 348 q 152 356 152 517 q 152 564 141 582 q 128 600 102 600 q 102 601 91 601 z"},"X":{"x_min":0,"x_max":254,"ha":254,"o":"m 200 12 q 171 12 171 36 q 171 87 162 128 q 153 168 143 209 q 133 249 130 263 q 128 252 122 217 q 116 181 109 146 q 103 111 94 75 q 74 -6 45 -6 q 36 -6 27 0 q 19 6 19 16 q 19 54 40 128 q 61 203 82 280 q 103 356 103 396 q 103 437 93 481 q 82 527 70 562 q 38 657 39 719 l 39 722 q 48 742 62 742 q 77 742 87 725 q 97 708 104 679 q 112 650 118 624 q 123 599 128 568 q 133 537 135 531 q 137 536 147 600 q 174 757 204 757 q 215 757 225 751 q 234 745 234 728 q 234 710 197 567 q 159 423 159 389 q 159 377 185 252 q 210 127 211 121 l 211 115 q 212 103 220 78 q 228 53 228 41 q 228 28 219 20 q 211 12 200 12 z"},"*":{"x_min":0,"x_max":513,"ha":513,"o":"m 330 581 l 396 585 q 446 585 446 555 q 446 530 412 530 q 390 530 346 532 q 303 534 281 534 q 284 526 320 456 q 355 386 355 371 q 355 356 348 349 q 341 342 326 342 q 312 342 302 361 q 293 379 292 401 l 250 494 q 244 481 231 445 q 205 370 184 337 l 160 337 l 139 359 l 138 364 q 140 384 175 453 q 209 521 214 535 q 158 535 124 535 q 91 535 86 536 q 82 536 76 538 q 66 542 66 556 q 66 571 73 577 q 80 584 89 584 l 208 584 q 207 586 196 607 q 186 627 178 642 q 171 657 161 678 q 142 720 141 731 q 141 743 149 749 q 158 755 169 755 q 181 755 196 727 q 210 698 225 659 q 240 619 242 614 q 244 618 250 640 q 257 663 263 680 q 269 698 278 720 q 297 766 317 765 q 328 765 336 757 q 345 749 345 736 q 345 724 334 695 q 323 666 305 629 q 288 591 285 583 q 304 581 330 581 z"},"Y":{"x_min":0,"x_max":221,"ha":221,"o":"m 104 12 l 108 206 q 108 235 99 292 q 89 350 89 385 q 89 419 77 469 q 65 520 51 560 q 12 665 12 739 q 12 746 21 751 q 29 756 39 756 q 48 756 58 733 q 69 710 78 675 q 86 639 94 604 q 102 568 108 534 q 114 501 117 491 q 119 500 122 533 q 125 566 128 601 q 132 636 138 671 q 151 751 177 751 q 204 751 204 741 q 204 685 180 573 q 156 462 156 404 l 153 370 l 153 354 l 159 89 l 162 40 l 162 17 q 162 4 152 -4 q 142 -12 130 -12 q 119 -12 111 -5 q 104 2 104 12 z"},"c":{"x_min":0,"x_max":247,"ha":247,"o":"m 23 242 l 22 300 l 22 324 q 22 472 37 529 q 55 601 86 628 q 128 666 193 666 q 209 666 217 659 q 224 651 224 641 q 224 631 218 623 q 212 615 203 614 l 156 614 q 135 614 120 588 q 105 562 99 523 q 86 451 86 404 l 86 399 l 82 206 q 82 145 89 122 q 95 98 102 84 q 109 69 119 60 q 142 39 177 39 q 188 39 198 47 q 210 47 219 42 q 229 37 229 25 q 229 -14 173 -14 q 151 -14 126 -8 q 102 -1 89 7 q 23 50 23 242 z"},"!":{"x_min":0,"x_max":140,"ha":140,"o":"m 103 13 q 103 -22 53 -22 q 42 -22 31 -12 q 20 -1 20 16 q 20 33 32 47 q 44 61 62 61 q 81 61 92 47 q 103 33 103 13 z m 89 265 l 90 218 q 90 149 71 149 q 61 149 52 174 q 44 198 44 235 l 48 401 l 43 729 q 43 745 56 756 q 69 768 83 768 q 96 768 103 760 q 110 753 110 743 q 110 663 99 504 q 89 345 89 265 z"},"/":{"x_min":0,"x_max":250,"ha":250,"o":"m 27 -26 q 15 -26 15 -4 q 15 4 20 20 q 24 36 105 363 q 186 689 207 758 q 209 765 216 765 q 223 765 229 759 q 234 753 234 746 q 234 740 224 685 q 213 630 141 341 q 68 52 37 -15 q 34 -26 27 -26 z"},"[":{"x_min":0,"x_max":228,"ha":228,"o":"m 188 715 l 132 722 q 113 722 113 712 q 113 596 94 365 q 74 133 74 23 l 74 3 l 84 3 q 173 3 173 -33 q 173 -55 141 -55 q 21 -55 21 -17 q 21 24 31 106 q 42 188 42 250 q 42 312 54 476 q 67 640 67 723 q 67 723 66 742 q 66 753 70 759 q 74 765 86 770 l 125 770 q 182 770 205 755 q 215 748 215 738 q 215 728 207 721 q 198 715 188 715 z"},"6":{"x_min":0,"x_max":274,"ha":274,"o":"m 46 430 q 46 774 154 774 q 162 774 169 768 q 177 762 177 752 q 177 741 166 732 q 154 723 139 720 q 126 708 116 651 q 100 560 96 463 q 104 465 111 465 q 210 465 228 218 q 231 167 231 131 q 231 94 230 79 q 229 65 225 47 q 220 29 212 19 q 192 -7 151 -7 q 57 -1 46 292 z m 159 36 q 185 36 185 104 q 185 171 176 256 q 158 422 117 431 q 104 421 99 408 q 95 396 95 377 q 95 359 95 342 q 96 325 96 295 q 97 266 99 239 q 101 212 104 181 q 107 150 112 126 q 117 102 123 80 q 136 36 159 36 z"},"r":{"x_min":0,"x_max":246,"ha":246,"o":"m 85 629 l 82 615 q 82 574 83 497 q 85 419 85 384 q 109 396 123 448 q 138 500 138 527 q 138 554 136 567 q 135 580 130 596 q 120 628 85 629 z m 81 335 l 80 227 q 80 94 99 18 l 88 -9 l 60 -9 l 47 6 q 48 51 48 107 q 48 163 39 346 q 31 529 31 619 q 31 667 64 667 q 116 667 152 639 q 188 612 188 561 l 188 491 q 188 462 177 438 q 166 415 152 388 q 138 362 136 359 q 142 335 155 264 q 185 108 220 40 q 230 20 230 9 q 230 -2 224 -10 q 218 -17 208 -17 q 187 -17 168 31 q 148 79 137 138 q 101 317 93 335 z"},"2":{"x_min":0,"x_max":262,"ha":262,"o":"m 208 2 l 55 -7 q 41 -7 30 1 q 19 9 19 23 l 19 27 q 40 52 54 93 q 68 133 74 146 q 131 272 159 378 q 187 483 187 606 q 187 729 139 732 q 122 724 116 685 q 110 648 86 648 q 62 648 62 679 q 62 728 91 758 q 106 774 127 774 l 127 775 q 179 775 202 743 q 219 719 224 700 q 229 681 230 669 q 232 658 233 641 q 234 614 234 564 q 234 514 217 433 q 199 353 178 297 q 158 241 126 162 q 95 83 82 42 q 142 52 200 52 q 221 37 221 25 q 221 13 208 2 z"},"{":{"x_min":0,"x_max":317,"ha":317,"o":"m 209 19 l 268 30 q 272 30 274 22 q 276 13 276 5 q 276 -4 265 -12 q 246 -23 216 -23 q 160 -23 138 7 q 117 38 117 97 l 117 303 q 117 345 93 350 q 83 353 73 353 q 49 353 49 374 q 49 397 73 398 q 83 399 93 401 q 117 407 117 447 l 112 552 q 112 588 119 599 q 116 613 116 625 q 116 671 142 700 q 168 730 216 730 q 248 730 267 720 q 286 711 286 700 q 286 690 278 684 q 269 678 258 678 l 209 688 q 161 688 161 565 l 165 462 q 165 398 147 375 q 164 354 164 304 l 164 89 q 164 19 209 19 z"},"9":{"x_min":0,"x_max":275,"ha":275,"o":"m 227 693 l 215 116 l 208 44 l 208 24 q 208 7 200 -5 q 192 -17 175 -17 l 160 2 q 175 49 175 335 l 173 455 q 118 467 82 509 q 46 551 46 607 q 46 735 101 775 q 119 788 143 788 q 191 788 209 766 q 227 743 227 693 z m 174 493 q 179 569 179 697 q 179 720 172 733 q 165 746 147 746 q 129 746 119 729 q 109 712 104 688 q 95 641 95 619 q 95 597 96 587 q 97 577 98 569 q 99 562 103 554 q 106 547 108 542 q 110 537 116 531 q 122 526 124 523 q 127 521 135 515 q 144 510 147 508 q 150 506 160 501 q 170 495 174 493 z"}," ":{"x_min":0,"x_max":114,"ha":114,"o":""},"I":{"x_min":0,"x_max":211,"ha":211,"o":"m 147 704 l 129 705 q 120 705 115 700 q 110 696 110 684 q 110 586 123 392 q 135 197 135 99 l 135 61 q 145 62 155 62 q 197 62 197 27 l 197 21 l 172 4 l 104 1 q 18 1 18 31 q 18 55 48 55 l 69 54 q 83 54 83 77 q 83 154 74 308 q 65 462 65 540 l 67 642 q 67 674 64 697 q 51 693 41 693 q 18 693 18 717 q 18 729 33 738 q 48 747 70 751 q 112 758 133 758 q 153 758 162 750 q 170 742 170 731 q 170 720 164 712 q 157 704 147 704 z"},"H":{"x_min":0,"x_max":273,"ha":273,"o":"m 215 -15 q 189 -15 189 18 q 189 208 181 371 q 154 375 130 375 q 107 375 88 368 q 88 312 97 199 q 105 86 105 29 q 105 19 99 11 q 93 2 83 2 q 56 2 43 174 q 26 407 26 737 q 26 755 43 755 q 53 755 63 750 q 74 745 79 739 q 75 704 75 664 l 82 458 l 81 421 q 81 407 83 395 l 180 402 l 176 730 l 176 757 q 214 757 222 723 q 225 706 225 638 q 225 570 235 350 q 244 130 244 21 q 244 8 236 -4 q 228 -15 215 -15 z"},"4":{"x_min":0,"x_max":271,"ha":271,"o":"m 131 287 l 141 566 q 141 577 149 583 q 158 589 167 589 l 182 571 l 182 523 q 182 368 180 291 l 209 293 q 239 293 239 272 q 239 248 199 248 q 183 248 183 239 q 183 205 185 146 q 188 87 193 76 q 191 64 191 54 q 191 44 195 37 l 195 19 q 195 -19 172 -19 q 157 -19 148 -3 q 140 13 140 29 l 140 32 q 146 51 146 68 l 138 166 l 139 209 q 139 226 137 240 l 83 234 l 83 234 q 64 234 43 250 q 43 272 48 289 q 43 312 43 345 q 43 379 51 448 q 59 517 59 549 l 59 734 q 59 744 62 749 q 65 753 77 753 q 89 753 98 747 q 107 740 107 729 l 103 651 l 103 633 q 103 623 104 615 l 104 611 q 107 585 107 550 q 107 516 100 431 q 93 346 93 319 q 93 292 95 281 q 112 282 131 287 z"},"~":{"x_min":0,"x_max":330,"ha":330,"o":"m 320 571 q 320 545 301 526 q 282 507 256 507 q 163 507 124 527 q 82 549 66 549 q 52 544 55 530 q 57 517 41 511 q 25 511 15 518 q 4 525 4 544 q 4 563 24 581 q 43 598 73 598 q 102 598 163 577 q 225 557 239 557 q 254 557 259 563 q 264 570 266 577 q 267 584 272 591 q 278 597 291 597 q 304 597 312 589 q 320 582 320 571 z"},"D":{"x_min":0,"x_max":319,"ha":319,"o":"m 103 151 q 103 151 103 56 q 141 80 168 124 q 196 167 211 219 q 238 318 238 417 q 238 530 210 596 q 181 663 139 685 q 112 698 79 698 l 79 697 q 79 606 91 425 q 103 243 103 151 z m 287 368 l 290 347 q 290 276 252 180 q 209 70 150 24 q 117 -2 82 -2 q 63 -2 48 6 q 33 15 33 32 q 55 55 55 149 q 55 205 46 315 q 37 425 37 479 l 40 589 q 40 615 29 660 q 18 705 18 723 q 18 758 94 758 l 109 758 q 211 758 257 644 q 290 564 290 424 l 290 377 q 287 373 287 368 z"},"0":{"x_min":0,"x_max":322,"ha":322,"o":"m 100 483 l 110 386 q 110 233 132 125 q 147 49 178 49 q 193 49 204 79 q 216 108 221 151 q 230 230 230 274 q 230 318 229 359 q 227 399 224 455 q 220 510 212 556 q 205 603 193 645 q 169 734 122 741 q 106 728 101 715 q 96 703 96 681 z m 48 597 q 48 719 91 750 q 108 763 133 763 q 276 763 276 254 q 276 3 169 3 q 90 3 62 248 q 48 372 48 597 z"},"F":{"x_min":0,"x_max":191,"ha":191,"o":"m 112 46 l 110 40 q 112 34 112 24 q 112 15 103 7 q 93 -1 78 -1 q 49 -1 49 63 q 49 158 39 423 q 29 688 19 703 q 20 755 90 758 q 101 759 119 759 q 137 759 148 752 q 158 745 158 724 q 158 703 130 703 l 106 704 q 78 704 78 693 q 78 646 85 557 q 93 467 93 424 q 100 425 110 428 q 136 435 148 435 q 160 435 168 426 q 176 416 176 404 q 176 372 93 372 q 93 317 103 209 q 112 101 112 46 z"},"`":{"x_min":0,"x_max":247,"ha":247,"o":"m 215 760 q 215 753 203 753 q 191 753 107 781 q 23 808 23 816 q 23 828 34 842 q 44 855 55 855 q 66 855 141 814 q 215 773 215 760 z"},"k":{"x_min":0,"x_max":311,"ha":311,"o":"m 172 449 l 170 389 q 170 346 204 229 q 239 111 262 73 q 265 68 275 55 q 285 41 289 31 q 294 21 294 9 q 294 -2 285 -10 q 277 -17 266 -17 q 242 -17 217 32 q 191 82 172 154 q 138 276 122 367 q 86 295 86 193 l 86 8 q 86 -15 65 -15 q 50 -15 41 -7 q 32 2 32 17 l 32 320 q 32 375 42 482 q 51 590 51 644 q 60 663 77 663 q 94 663 103 654 q 112 645 112 632 l 112 629 q 99 606 99 447 l 99 411 q 100 414 135 484 q 221 656 241 656 q 255 656 267 649 q 279 643 279 629 q 279 628 255 589 q 182 469 172 449 z"},"u":{"x_min":0,"x_max":313,"ha":313,"o":"m 273 446 l 274 429 q 274 -15 146 -15 q 96 -16 72 25 q 47 67 42 109 q 33 173 32 256 q 31 338 31 495 l 26 638 q 36 659 48 659 q 60 659 69 640 q 78 622 78 602 l 78 330 q 78 294 85 224 q 92 153 92 118 q 92 44 156 44 q 227 44 227 582 l 227 638 l 227 655 q 227 667 232 672 q 237 678 251 678 q 264 678 271 674 q 277 670 280 662 q 284 650 285 630 l 278 529 z"},"]":{"x_min":0,"x_max":230,"ha":230,"o":"m 110 770 l 130 771 q 150 771 157 762 q 164 753 164 698 q 164 644 178 486 q 191 328 191 266 q 191 204 201 116 q 211 27 211 -17 q 211 -55 90 -55 q 58 -55 58 -33 q 58 3 146 3 l 157 3 l 157 23 q 154 123 135 355 q 117 586 117 712 l 117 721 l 52 715 q 16 715 16 738 q 16 770 110 770 z"},"U":{"x_min":0,"x_max":341,"ha":341,"o":"m 25 544 l 26 701 q 19 709 19 721 q 19 733 28 743 q 36 752 48 752 q 84 752 84 681 l 93 333 q 99 320 103 280 q 107 240 107 218 q 107 195 115 163 q 122 130 134 97 q 146 64 168 41 q 189 17 208 17 q 227 17 236 26 q 246 35 249 52 q 254 78 254 107 l 254 302 q 254 334 248 396 q 242 459 242 491 l 242 498 l 240 556 l 232 727 q 232 739 245 747 q 257 754 270 754 l 294 731 l 294 714 l 287 653 q 287 570 296 402 q 305 234 305 175 q 305 115 303 95 q 302 76 296 53 q 290 31 280 16 q 256 -18 207 -18 q 146 -19 108 35 q 69 92 54 171 q 35 264 31 334 q 25 440 25 544 z"},"o":{"x_min":0,"x_max":318,"ha":318,"o":"m 25 306 l 26 344 q 26 349 24 349 l 24 367 q 24 524 42 590 q 58 646 72 660 q 86 673 100 673 q 216 673 260 556 q 285 488 285 390 l 285 382 l 287 269 q 287 -19 154 -19 q 99 -19 69 42 q 42 101 35 158 q 25 243 25 306 z m 84 442 l 79 350 q 79 205 103 97 q 127 34 150 23 q 168 23 183 38 q 197 52 206 77 q 214 102 220 129 q 226 156 229 187 q 233 240 233 277 q 233 315 227 393 q 220 470 220 508 l 220 526 q 219 562 196 591 q 173 620 138 620 q 104 620 92 581 q 83 549 83 501 z"},"N":{"x_min":0,"x_max":360,"ha":360,"o":"m 33 524 l 40 708 l 40 714 q 40 764 62 764 q 82 764 115 671 q 177 502 263 115 l 264 110 l 268 458 l 268 754 q 273 779 300 779 q 327 779 327 740 l 327 734 q 321 722 321 705 l 315 335 l 315 30 q 315 15 307 0 q 298 -15 286 -15 q 265 -15 204 191 q 143 397 83 634 l 83 306 q 83 258 91 163 q 98 68 98 21 q 98 11 86 5 q 75 -1 58 -1 q 41 -1 41 15 l 45 86 q 45 138 39 254 q 33 371 33 396 z"},"+":{"x_min":0,"x_max":417,"ha":417,"o":"m 229 270 l 238 190 q 238 178 228 170 q 218 163 206 163 q 193 163 183 170 q 173 177 173 188 l 167 285 l 167 292 l 111 288 q 68 288 68 320 q 68 330 74 338 q 81 346 91 346 l 150 342 q 163 342 173 344 q 173 344 167 417 q 167 473 199 473 q 210 473 218 464 q 225 456 225 444 l 225 432 q 225 342 238 342 l 296 346 q 348 346 348 316 q 348 304 339 296 q 331 289 319 289 l 260 294 q 229 294 229 270 z"},"G":{"x_min":0,"x_max":355,"ha":355,"o":"m 256 181 l 217 177 q 183 177 183 206 q 183 230 248 237 q 260 239 275 239 q 291 239 301 223 q 312 208 312 181 q 312 155 322 96 q 332 37 332 17 q 332 -20 307 -20 q 283 -20 274 1 l 274 2 q 269 0 252 -9 q 222 -26 192 -26 q 171 -26 149 -17 q 104 1 79 44 q 53 89 44 131 q 36 172 33 196 q 30 221 28 252 q 25 292 25 347 l 25 421 q 25 518 31 560 q 38 602 44 628 q 51 655 60 676 q 68 697 81 716 q 94 736 110 749 q 146 777 192 777 q 238 777 238 749 q 238 738 230 731 q 222 725 211 725 l 183 730 q 145 729 124 685 q 101 635 94 591 q 88 546 85 519 q 81 492 80 458 q 78 411 79 363 l 78 301 q 78 206 87 165 q 95 125 104 101 q 113 76 126 61 q 167 29 199 25 q 243 25 272 67 q 271 156 256 181 z"},"q":{"x_min":0,"x_max":314,"ha":314,"o":"m 245 -212 q 245 -212 245 -211 q 189 -211 168 -188 q 168 -162 166 -146 q 164 -129 163 -121 q 162 -112 159 -97 q 156 -82 155 -76 q 154 -70 150 -52 q 147 -35 146 -30 q 85 -18 57 39 q 38 77 33 112 q 28 146 26 167 q 25 188 24 218 q 24 237 24 253 q 24 261 24 268 q 24 288 25 319 q 25 350 25 371 q 25 392 27 416 q 28 440 31 478 q 35 515 42 546 q 50 577 62 606 q 74 635 94 652 q 113 668 138 668 q 146 665 161 661 q 177 658 192 652 q 207 646 224 629 q 241 612 252 590 q 262 567 269 544 q 276 521 279 493 q 284 445 284 409 q 284 374 284 355 q 284 336 283 300 q 282 265 279 235 q 276 206 272 169 q 269 132 262 103 q 255 74 246 46 q 228 -10 195 -24 q 195 -57 207 -101 q 219 -146 222 -159 q 269 -159 269 -188 q 269 -198 262 -205 q 255 -212 245 -212 z m 132 629 q 116 629 103 591 q 91 554 85 500 q 74 396 74 360 q 74 324 74 311 q 74 298 75 267 q 76 235 78 210 q 80 186 83 153 q 85 120 91 96 q 96 71 103 49 q 117 3 143 3 q 157 9 172 9 q 190 9 210 110 q 231 211 231 250 l 231 424 q 231 629 132 629 z"},"d":{"x_min":0,"x_max":298,"ha":298,"o":"m 36 125 l 39 440 q 39 472 33 538 q 27 604 27 623 q 27 641 38 651 q 49 661 62 661 q 165 661 229 540 q 267 471 267 395 l 265 344 l 265 289 q 265 188 256 155 q 247 121 237 99 q 227 76 213 59 q 182 19 133 -6 l 61 -6 q 36 -6 36 125 z m 105 69 l 105 45 q 192 45 210 221 q 214 261 214 299 q 214 601 98 614 q 90 575 90 506 q 90 437 98 290 q 105 143 105 69 z"},"1":{"x_min":0,"x_max":221,"ha":221,"o":"m 118 -4 l 88 -4 q 71 -4 64 1 q 57 6 57 20 q 57 34 61 38 q 66 42 85 42 q 104 42 104 59 q 104 157 89 351 q 74 545 74 639 l 76 675 q 76 722 41 722 l 18 721 q -10 721 -10 743 q -10 769 70 769 q 112 769 122 752 q 116 725 116 702 q 116 680 123 619 q 131 558 131 503 q 131 448 142 290 q 152 132 152 53 l 152 47 q 176 50 189 50 l 189 50 q 231 50 231 25 q 231 -4 118 -4 z"},"5":{"x_min":0,"x_max":209,"ha":209,"o":"m 127 -18 l 110 -18 q 55 -18 55 10 q 55 21 65 27 q 74 33 87 33 q 101 33 112 24 q 136 33 150 79 q 164 125 164 156 q 164 187 163 203 q 163 219 162 245 q 161 271 159 288 q 157 304 153 326 q 149 348 143 362 q 138 376 129 392 q 120 406 109 415 q 84 435 50 435 q 26 435 19 454 q 13 470 13 492 l 19 543 q 19 605 -6 752 l 11 770 l 93 770 q 134 770 134 744 l 134 739 l 116 724 l 91 724 l 91 727 l 48 727 q 51 664 68 489 q 70 489 87 487 q 104 485 111 484 q 136 480 149 471 q 172 456 187 401 q 211 312 211 212 q 211 126 207 107 q 202 87 195 69 q 189 51 181 38 q 160 8 127 -18 z"}}}
